<svg width="28" height="29" viewBox="0 0 28 29" fill="none" xmlns="http://www.w3.org/2000/svg">
<path d="M26.88 0.87207H1.12C0.5005 0.87207 0 1.37257 0 1.99207V27.7521C0 28.3716 0.5005 28.8721 1.12 28.8721H26.88C27.4995 28.8721 28 28.3716 28 27.7521V1.99207C28 1.37257 27.4995 0.87207 26.88 0.87207ZM23.646 9.04457H21.4095C19.656 9.04457 19.3165 9.87757 19.3165 11.1026V13.8011H23.5025L22.9565 18.0256H19.3165V28.8721H14.952V18.0291H11.3015V13.8011H14.952V10.6861C14.952 7.07057 17.1605 5.10007 20.3875 5.10007C21.9345 5.10007 23.261 5.21557 23.6495 5.26807V9.04457H23.646Z" fill="#2B2B2B"/>
</svg>
