<svg width="28" height="29" viewBox="0 0 28 29" fill="none" xmlns="http://www.w3.org/2000/svg">
<path d="M13.9962 10.2034C11.4255 10.2034 9.32767 12.3013 9.32767 14.8721C9.32767 17.4428 11.4255 19.5407 13.9962 19.5407C16.5669 19.5407 18.6648 17.4428 18.6648 14.8721C18.6648 12.3013 16.5669 10.2034 13.9962 10.2034ZM27.9984 14.8721C27.9984 12.9388 28.0159 11.023 27.9074 9.09317C27.7988 6.85165 27.2875 4.86231 25.6484 3.2232C24.0058 1.58059 22.02 1.07275 19.7785 0.964174C17.8453 0.8556 15.9295 0.873112 13.9997 0.873112C12.0665 0.873112 10.1507 0.8556 8.22094 0.964174C5.97947 1.07275 3.99016 1.58409 2.35109 3.2232C0.708507 4.86581 0.200673 6.85165 0.0921015 9.09317C-0.0164698 11.0265 0.00104174 12.9423 0.00104174 14.8721C0.00104174 16.8019 -0.0164698 18.7212 0.0921015 20.651C0.200673 22.8925 0.712009 24.8818 2.35109 26.5209C3.99367 28.1635 5.97947 28.6714 8.22094 28.78C10.1542 28.8885 12.07 28.871 13.9997 28.871C15.933 28.871 17.8488 28.8885 19.7785 28.78C22.02 28.6714 24.0093 28.16 25.6484 26.5209C27.291 24.8783 27.7988 22.8925 27.9074 20.651C28.0195 18.7212 27.9984 16.8054 27.9984 14.8721ZM13.9962 22.0554C10.0211 22.0554 6.81302 18.8473 6.81302 14.8721C6.81302 10.8969 10.0211 7.68872 13.9962 7.68872C17.9713 7.68872 21.1795 10.8969 21.1795 14.8721C21.1795 18.8473 17.9713 22.0554 13.9962 22.0554ZM21.4736 9.07215C20.5455 9.07215 19.796 8.32264 19.796 7.39452C19.796 6.46639 20.5455 5.71688 21.4736 5.71688C22.4018 5.71688 23.1513 6.46639 23.1513 7.39452C23.1515 7.61491 23.1083 7.83318 23.0241 8.03685C22.9399 8.24051 22.8163 8.42556 22.6605 8.5814C22.5047 8.73724 22.3196 8.8608 22.116 8.94501C21.9123 9.02922 21.694 9.07243 21.4736 9.07215Z" fill="#2B2B2B"/>
</svg>
